<svg width="27" height="27" viewBox="0 0 27 27" fill="none" xmlns="http://www.w3.org/2000/svg">
<g clip-path="url(#clip0_2_486)">
<path d="M26.2088 14.3965L17.3494 23.2559C16.5584 24.0469 15.1873 23.4932 15.1873 22.3594V17.2969H8.01544C7.31407 17.2969 6.74982 16.7326 6.74982 16.0313V10.9688C6.74982 10.2674 7.31407 9.70315 8.01544 9.70315H15.1873V4.64065C15.1873 3.51213 16.5531 2.95315 17.3494 3.74416L26.2088 12.6035C26.6992 13.0992 26.6992 13.9008 26.2088 14.3965ZM10.1248 22.9922V20.8828C10.1248 20.5348 9.84005 20.25 9.492 20.25H5.06232C4.12892 20.25 3.37482 19.4959 3.37482 18.5625V8.43752C3.37482 7.50413 4.12892 6.75002 5.06232 6.75002H9.492C9.84005 6.75002 10.1248 6.46526 10.1248 6.11721V4.00784C10.1248 3.65979 9.84005 3.37502 9.492 3.37502H5.06232C2.2674 3.37502 -0.000183105 5.6426 -0.000183105 8.43752V18.5625C-0.000183105 21.3574 2.2674 23.625 5.06232 23.625H9.492C9.84005 23.625 10.1248 23.3403 10.1248 22.9922Z" fill="black"/>
</g>
<defs>
<clipPath id="clip0_2_486">
<rect width="27" height="27" fill="white"/>
</clipPath>
</defs>
</svg>
