<svg width="35" height="35" viewBox="0 0 35 35" fill="none" xmlns="http://www.w3.org/2000/svg">
<path d="M17.5001 3.28125C16.8165 3.28125 16.1372 3.51196 15.5519 3.93066L13.7404 5.19531L11.6554 5.46875H11.6212L11.587 5.50293C10.1942 5.81482 9.09619 6.91284 8.7843 8.30566L8.75012 8.33984V8.37402L8.47668 10.4932L7.21204 12.1338L7.17786 12.168V12.2021C6.41309 13.4241 6.37891 15.0006 7.21204 16.167L8.51086 17.9785L8.85266 19.8584L5.33215 25.2246L4.20422 26.8994H9.43372L10.6984 29.8389L11.4845 31.7188L12.6124 30.0098L16.0646 24.8145C16.9917 25.1947 18.0385 25.2289 18.9357 24.8145L22.3878 30.0098L23.5157 31.7188L24.3019 29.8389L25.5665 26.8994H30.796L29.6681 25.2246L26.2501 20.0293L26.5236 17.9785L27.7882 16.167L27.8224 16.1328V16.0986C28.5872 14.8767 28.6213 13.3344 27.7882 12.168L26.5236 10.3564L26.1134 8.30566H26.1476C26.1433 8.28003 26.1177 8.26294 26.1134 8.2373C25.9169 6.80603 24.7847 5.64392 23.3448 5.46875H23.3107L21.2599 5.19531L19.4484 3.93066C18.863 3.51196 18.1837 3.28125 17.5001 3.28125ZM17.5001 5.50293C17.7522 5.50293 18 5.57983 18.1837 5.70801L20.132 7.10938L20.3712 7.28027L20.6447 7.31445L23.0372 7.65625H23.0714C23.5627 7.71179 23.9045 8.05359 23.9601 8.54492V8.61328L24.4044 11.04L24.4386 11.2793L24.6095 11.4844L26.0109 13.4326C26.2715 13.7958 26.3057 14.411 25.9767 14.9365L24.4386 17.0898L24.4044 17.3633L24.0626 19.7559V19.79C24.0413 19.9695 23.9814 20.1361 23.8917 20.2686L23.8234 20.3027V20.3369C23.6653 20.5249 23.4474 20.6488 23.174 20.6787H23.1056L20.6105 21.123L20.337 21.1572L20.132 21.3281L18.1837 22.7295C17.8206 22.9901 17.1711 23.0243 16.6456 22.6953L14.8683 21.3281L14.6632 21.1572L14.3556 21.123L11.963 20.7812H11.9288C11.5913 20.7428 11.3307 20.5676 11.1769 20.3027C11.1085 20.1831 11.0573 20.0421 11.0402 19.8926V19.8242L10.5958 17.3291L10.5616 17.0557L10.3907 16.8506L8.98938 14.9023C8.72876 14.5392 8.69458 13.8898 9.02356 13.3643L10.3907 11.5869L10.5616 11.3818L10.5958 11.0742L10.9034 8.78418C10.9077 8.76709 10.9334 8.76709 10.9376 8.75C11.0743 8.21594 11.4973 7.79297 12.0314 7.65625C12.0485 7.65198 12.0485 7.62634 12.0656 7.62207L14.3556 7.31445L14.629 7.28027L14.8683 7.10938L16.8165 5.70801C17.0002 5.57983 17.248 5.50293 17.5001 5.50293ZM25.0538 22.1484L26.7286 24.7119H24.0968L23.8234 25.3955L23.0714 27.1387L20.7472 23.584L21.2599 23.208L23.4132 22.832V22.8662C23.4388 22.8619 23.4559 22.8363 23.4816 22.832C24.0712 22.7509 24.6052 22.5031 25.0538 22.1484ZM9.94641 22.1826C10.4121 22.6013 11.006 22.8918 11.6554 22.9688C11.6682 22.9688 11.6768 22.9688 11.6896 22.9688L13.7745 23.2422L14.2531 23.6182L11.9288 27.1387L11.1769 25.3955L10.9034 24.7119H8.27161L9.94641 22.1826Z" fill="black"/>
</svg>
