<svg width="17" height="19" viewBox="0 0 17 19" fill="none" xmlns="http://www.w3.org/2000/svg">
<path d="M1.21465 17.2186C1.21465 17.6911 1.40655 18.1441 1.74814 18.4782C2.08972 18.8122 2.55301 18.9999 3.03608 18.9999H13.9647C14.4477 18.9999 14.911 18.8122 15.2526 18.4782C15.5942 18.1441 15.7861 17.6911 15.7861 17.2186V4.74988H1.21465V17.2186ZM11.5361 7.71863C11.5361 7.56116 11.6 7.41014 11.7139 7.29879C11.8278 7.18744 11.9822 7.12488 12.1432 7.12488C12.3042 7.12488 12.4587 7.18744 12.5725 7.29879C12.6864 7.41014 12.7504 7.56116 12.7504 7.71863V16.0311C12.7504 16.1886 12.6864 16.3396 12.5725 16.451C12.4587 16.5623 12.3042 16.6249 12.1432 16.6249C11.9822 16.6249 11.8278 16.5623 11.7139 16.451C11.6 16.3396 11.5361 16.1886 11.5361 16.0311V7.71863ZM7.89322 7.71863C7.89322 7.56116 7.95719 7.41014 8.07105 7.29879C8.18491 7.18744 8.33934 7.12488 8.50037 7.12488C8.66139 7.12488 8.81582 7.18744 8.92968 7.29879C9.04354 7.41014 9.10751 7.56116 9.10751 7.71863V16.0311C9.10751 16.1886 9.04354 16.3396 8.92968 16.451C8.81582 16.5623 8.66139 16.6249 8.50037 16.6249C8.33934 16.6249 8.18491 16.5623 8.07105 16.451C7.95719 16.3396 7.89322 16.1886 7.89322 16.0311V7.71863ZM4.25037 7.71863C4.25037 7.56116 4.31433 7.41014 4.42819 7.29879C4.54206 7.18744 4.69649 7.12488 4.85751 7.12488C5.01853 7.12488 5.17296 7.18744 5.28682 7.29879C5.40069 7.41014 5.46465 7.56116 5.46465 7.71863V16.0311C5.46465 16.1886 5.40069 16.3396 5.28682 16.451C5.17296 16.5623 5.01853 16.6249 4.85751 16.6249C4.69649 16.6249 4.54206 16.5623 4.42819 16.451C4.31433 16.3396 4.25037 16.1886 4.25037 16.0311V7.71863ZM16.3932 1.18738H11.8397L11.483 0.493439C11.4074 0.345081 11.291 0.220285 11.1469 0.133092C11.0027 0.0458979 10.8366 -0.000234436 10.6671 -0.000115564H6.32983C6.16073 -0.000751268 5.99487 0.0452091 5.85125 0.1325C5.70763 0.219791 5.59206 0.344881 5.51778 0.493439L5.16108 1.18738H0.607509C0.446485 1.18738 0.292056 1.24994 0.178194 1.36129C0.0643329 1.47264 0.000366211 1.62366 0.000366211 1.78113L0.000366211 2.96863C0.000366211 3.12611 0.0643329 3.27713 0.178194 3.38848C0.292056 3.49983 0.446485 3.56238 0.607509 3.56238H16.3932C16.5542 3.56238 16.7087 3.49983 16.8225 3.38848C16.9364 3.27713 17.0004 3.12611 17.0004 2.96863V1.78113C17.0004 1.62366 16.9364 1.47264 16.8225 1.36129C16.7087 1.24994 16.5542 1.18738 16.3932 1.18738Z" fill="#222221"/>
</svg>
