<svg width="19" height="19" viewBox="0 0 19 19" fill="none" xmlns="http://www.w3.org/2000/svg">
<path d="M8.01562 0H10.9844C11.4779 0 11.875 0.39707 11.875 0.890625V7.125H15.1295C15.79 7.125 16.1203 7.92285 15.6527 8.39043L10.0084 14.0385C9.73008 14.3168 9.27363 14.3168 8.99531 14.0385L3.34355 8.39043C2.87598 7.92285 3.20625 7.125 3.8668 7.125H7.125V0.890625C7.125 0.39707 7.52207 0 8.01562 0ZM19 13.9531V18.1094C19 18.6029 18.6029 19 18.1094 19H0.890625C0.39707 19 0 18.6029 0 18.1094V13.9531C0 13.4596 0.39707 13.0625 0.890625 13.0625H6.33457L8.15293 14.8809C8.89883 15.6268 10.1012 15.6268 10.8471 14.8809L12.6654 13.0625H18.1094C18.6029 13.0625 19 13.4596 19 13.9531ZM14.3984 17.2188C14.3984 16.8105 14.0645 16.4766 13.6562 16.4766C13.248 16.4766 12.9141 16.8105 12.9141 17.2188C12.9141 17.627 13.248 17.9609 13.6562 17.9609C14.0645 17.9609 14.3984 17.627 14.3984 17.2188ZM16.7734 17.2188C16.7734 16.8105 16.4395 16.4766 16.0312 16.4766C15.623 16.4766 15.2891 16.8105 15.2891 17.2188C15.2891 17.627 15.623 17.9609 16.0312 17.9609C16.4395 17.9609 16.7734 17.627 16.7734 17.2188Z" fill="#222221"/>
</svg>
