<svg width="21" height="19" viewBox="0 0 21 19" fill="none" xmlns="http://www.w3.org/2000/svg">
<path d="M14.6782 3.0877L17.9668 6.43496C18.1053 6.57598 18.1053 6.80605 17.9668 6.94707L10.0043 15.0518L6.62096 15.434C6.16887 15.4859 5.78606 15.0963 5.8371 14.6361L6.21262 11.1924L14.1751 3.0877C14.3137 2.94668 14.5397 2.94668 14.6782 3.0877ZM20.5845 2.23789L18.8053 0.426953C18.2512 -0.137109 17.3506 -0.137109 16.7928 0.426953L15.5022 1.74063C15.3637 1.88164 15.3637 2.11172 15.5022 2.25273L18.7907 5.6C18.9293 5.74101 19.1553 5.74101 19.2939 5.6L20.5845 4.28633C21.1387 3.71855 21.1387 2.80195 20.5845 2.23789ZM14.0001 12.8475V16.6252H2.33346V4.7502H10.7116C10.8282 4.7502 10.9376 4.70195 11.0215 4.62031L12.4798 3.13594C12.7569 2.85391 12.56 2.3752 12.1699 2.3752H1.75012C0.783976 2.3752 0.00012207 3.17305 0.00012207 4.15645V17.2189C0.00012207 18.2023 0.783976 19.0002 1.75012 19.0002H14.5835C15.5496 19.0002 16.3335 18.2023 16.3335 17.2189V11.3631C16.3335 10.966 15.8631 10.7693 15.5861 11.0477L14.1277 12.532C14.0475 12.6174 14.0001 12.7287 14.0001 12.8475Z" fill="#222221"/>
</svg>
