<svg width="39" height="39" viewBox="0 0 39 39" fill="none" xmlns="http://www.w3.org/2000/svg">
<path d="M30.875 6.5H8.125C7.26305 6.5 6.4364 6.84241 5.8269 7.4519C5.21741 8.0614 4.875 8.88805 4.875 9.75V11.375C4.89289 12.15 5.09535 12.9096 5.46557 13.5907C5.83579 14.2718 6.3631 14.8548 7.00375 15.2913L13.8938 19.89C14.1173 20.0372 14.301 20.2373 14.4286 20.4726C14.5561 20.7079 14.6236 20.9711 14.625 21.2387V30.875C14.625 31.4786 14.7931 32.0702 15.1104 32.5836C15.4277 33.097 15.8817 33.512 16.4216 33.7819C16.9614 34.0518 17.5657 34.1661 18.1669 34.1119C18.768 34.0577 19.3421 33.8371 19.825 33.475L22.425 31.525C23.0305 31.0709 23.5219 30.4821 23.8603 29.8052C24.1988 29.1282 24.375 28.3818 24.375 27.625V21.2387C24.3764 20.9711 24.4439 20.7079 24.5714 20.4726C24.699 20.2373 24.8827 20.0372 25.1062 19.89L31.9963 15.2913C32.6369 14.8548 33.1642 14.2718 33.5344 13.5907C33.9047 12.9096 34.1071 12.15 34.125 11.375V9.75C34.125 8.88805 33.7826 8.0614 33.1731 7.4519C32.5636 6.84241 31.737 6.5 30.875 6.5ZM23.3025 17.1762C22.6326 17.6213 22.0832 18.2251 21.7033 18.9339C21.3234 19.6427 21.1247 20.4345 21.125 21.2387V27.625C21.125 27.8773 21.0663 28.1261 20.9534 28.3517C20.8406 28.5774 20.6768 28.7736 20.475 28.925L17.875 30.875V21.2387C17.8753 20.4345 17.6766 19.6427 17.2967 18.9339C16.9168 18.2251 16.3674 17.6213 15.6975 17.1762L8.8075 12.5938C8.61028 12.4541 8.44668 12.2723 8.32862 12.0615C8.21055 11.8506 8.14099 11.6161 8.125 11.375V9.75H30.875V11.375C30.8687 11.6273 30.8038 11.8746 30.6853 12.0975C30.5669 12.3203 30.3981 12.5125 30.1925 12.6588L23.3025 17.2412" fill="#222221"/>
</svg>
