<svg width="26" height="30" viewBox="0 0 26 30" fill="none" xmlns="http://www.w3.org/2000/svg">
<g clip-path="url(#clip0_2_162)">
<path d="M0.927025 7.64692H25.0265C25.5384 7.64692 25.9534 7.23196 25.9534 6.72002V4.40276C25.9534 3.89082 25.5384 3.47586 25.0265 3.47586H0.927025C0.415085 3.47586 0.00012207 3.89082 0.00012207 4.40276V6.72002C0.00012207 7.23196 0.415085 7.64692 0.927025 7.64692ZM0.927025 16.916H25.0265C25.5384 16.916 25.9534 16.501 25.9534 15.989V13.6718C25.9534 13.1599 25.5384 12.7449 25.0265 12.7449H0.927025C0.415085 12.7449 0.00012207 13.1599 0.00012207 13.6718V15.989C0.00012207 16.501 0.415085 16.916 0.927025 16.916ZM0.927025 26.185H25.0265C25.5384 26.185 25.9534 25.77 25.9534 25.2581V22.9408C25.9534 22.4289 25.5384 22.0139 25.0265 22.0139H0.927025C0.415085 22.0139 0.00012207 22.4289 0.00012207 22.9408V25.2581C0.00012207 25.77 0.415085 26.185 0.927025 26.185Z" fill="black"/>
</g>
<defs>
<clipPath id="clip0_2_162">
<rect width="25.9533" height="29.6609" fill="white"/>
</clipPath>
</defs>
</svg>
