<svg width="25" height="25" viewBox="0 0 39 39" fill="none" xmlns="http://www.w3.org/2000/svg">
<g clip-path="url(#clip0_2_439)">
<path d="M11.31 27.3H9.74998V29.25H11.31C11.895 29.25 12.285 28.86 12.285 28.275C12.285 27.69 11.895 27.3 11.31 27.3ZM21.45 3.89999H5.84998V35.1H31.2V13.65L21.45 3.89999ZM14.04 28.47C14.04 30.03 12.87 31.2 11.31 31.2H9.74998V33.15H7.79998V25.35H11.31C12.87 25.35 14.04 26.52 14.04 28.08V28.47ZM22.035 29.445C22.035 31.395 20.475 33.15 18.33 33.15H15.6V25.35H18.33C20.28 25.35 22.035 26.91 22.035 29.055V29.445ZM29.25 27.3H25.35V29.25H28.275V31.2H25.35V33.15H23.4V25.35H29.25V27.3ZM29.25 23.4H7.79998V5.84999H21.45V13.65H29.25V23.4ZM18.33 27.3H17.55V31.2H18.33C19.5 31.2 20.28 30.42 20.28 29.25C20.28 28.08 19.305 27.3 18.33 27.3Z" fill="black"/>
</g>
<defs>
<clipPath id="clip0_2_439">
<rect width="39" height="39" fill="white"/>
</clipPath>
</defs>
</svg>
