<svg width="21" height="21" viewBox="0 0 21 21" fill="none" xmlns="http://www.w3.org/2000/svg">
<g clip-path="url(#clip0_2_473)">
<path d="M20.5209 2.32018e-05H18.5764C18.5097 -5.20325e-05 18.4438 0.0134104 18.3825 0.0395942C18.3212 0.0657779 18.2658 0.104137 18.2198 0.152347C18.1738 0.200556 18.138 0.25761 18.1147 0.32005C18.0914 0.38249 18.081 0.449015 18.0842 0.51559L18.2482 3.91004C17.2944 2.786 16.107 1.88329 14.7689 1.26471C13.4307 0.646123 11.9738 0.326525 10.4996 0.328148C4.89438 0.328148 0.323599 4.90262 0.327701 10.5078C0.331802 16.122 4.88454 20.6719 10.4996 20.6719C13.0184 20.6755 15.4482 19.741 17.3156 18.0506C17.3654 18.0059 17.4057 17.9516 17.4338 17.8909C17.462 17.8301 17.4775 17.7643 17.4793 17.6974C17.4812 17.6305 17.4693 17.5639 17.4446 17.5017C17.4198 17.4395 17.3826 17.383 17.3352 17.3357L15.9407 15.9412C15.8525 15.8529 15.734 15.8015 15.6092 15.7973C15.4845 15.7931 15.3628 15.8365 15.2689 15.9186C14.167 16.8881 12.7957 17.4986 11.338 17.6689C9.88023 17.8391 8.40521 17.561 7.10956 16.8716C5.8139 16.1822 4.75917 15.1142 4.08598 13.81C3.41278 12.5058 3.1531 11.0275 3.34156 9.57194C3.53001 8.11643 4.15765 6.75293 5.1408 5.66323C6.12395 4.57352 7.4159 3.80938 8.84442 3.47266C10.2729 3.13595 11.7702 3.24267 13.1365 3.77858C14.5028 4.3145 15.6733 5.25416 16.492 6.47229L12.3276 6.27254C12.2611 6.26938 12.1945 6.27977 12.1321 6.30308C12.0697 6.32639 12.0126 6.36214 11.9644 6.40817C11.9162 6.45419 11.8778 6.50953 11.8516 6.57082C11.8255 6.63211 11.812 6.69808 11.8121 6.76473V8.70928C11.8121 8.83982 11.8639 8.96501 11.9562 9.05731C12.0485 9.14961 12.1737 9.20147 12.3043 9.20147H20.5209C20.6515 9.20147 20.7766 9.14961 20.869 9.05731C20.9613 8.96501 21.0131 8.83982 21.0131 8.70928V0.492211C21.0131 0.361674 20.9613 0.236485 20.869 0.144182C20.7766 0.0518785 20.6515 2.32018e-05 20.5209 2.32018e-05Z" fill="black"/>
</g>
<defs>
<clipPath id="clip0_2_473">
<rect width="21" height="21" fill="white"/>
</clipPath>
</defs>
</svg>
