<svg width="19" height="22" viewBox="0 0 19 22" fill="none" xmlns="http://www.w3.org/2000/svg">
<g clip-path="url(#clip0_2_484)">
<path d="M18.4037 5.5834L14.8462 1.9791C14.4644 1.5923 13.9466 1.375 13.4067 1.375H2.03565C0.911345 1.375 -6.10352e-05 2.2984 -6.10352e-05 3.4375V18.5625C-6.10352e-05 19.7016 0.911345 20.625 2.03565 20.625H16.9642C18.0885 20.625 18.9999 19.7016 18.9999 18.5625V7.0418C18.9999 6.4948 18.7855 5.97019 18.4037 5.5834ZM9.49994 17.875C8.00089 17.875 6.78565 16.6438 6.78565 15.125C6.78565 13.6062 8.00089 12.375 9.49994 12.375C10.999 12.375 12.2142 13.6062 12.2142 15.125C12.2142 16.6438 10.999 17.875 9.49994 17.875ZM13.5714 4.79016V9.10938C13.5714 9.39413 13.3435 9.625 13.0624 9.625H3.22315C2.9421 9.625 2.71422 9.39413 2.71422 9.10938V4.64062C2.71422 4.35587 2.9421 4.125 3.22315 4.125H12.9148C13.0498 4.125 13.1793 4.17931 13.2747 4.27604L13.4223 4.42557C13.4696 4.47344 13.5071 4.53028 13.5326 4.59283C13.5582 4.65539 13.5714 4.72244 13.5714 4.79016Z" fill="black"/>
</g>
<defs>
<clipPath id="clip0_2_484">
<rect width="19" height="22" fill="white"/>
</clipPath>
</defs>
</svg>
